# xmcd
#
# Track frame offsets: 
#        150
#        11030
#        16792
#        33297
#        47960
#        59205
#        65937
#        80390
#        92100
#        104775
#        124250
#        134800
#        152772
#        163305
#        180200
#        189812
#        199440
#        211712
#        233195
#        244827
#        252427
#        264775
#
# Disc length: 3644 seconds
#
# Revision: 1
# Processed by: cddbd v1.5.1PL0 Copyright (c) Steve Scherf et al.
# Submitted via: ExactAudioCopy v0.95a5
#
DISCID=410e3a16
DTITLE=Various Artist - Bottleneck Blues
DYEAR=1995
DGENRE=Blues
TTITLE0=Napoleon Strickland - Key To The Bushes
TTITLE1=Big Joe Williams - Talking About Bottleneck
TTITLE2=Big Joe Williams - Traveling Blues
TTITLE3=Robert Nighthawk - Crying Won't Help You
TTITLE4=Fred McDowell - Six White Horses
TTITLE5=Mott Willis - Knife Instrumental
TTITLE6=John Lee Granderson - Flora Blues
TTITLE7=J.B. Hutto and The Hawks - Wild, Wild Woman
TTITLE8=Blind Connie Williams - St. Louis Blues
TTITLE9=David Edwards - Worryin' Woman Blues
TTITLE10=Robert Johnson - I'm Comin' Lord, Please Don't Drive Me Away
TTITLE11=The Chicago Blues Band - Verna Lee Blues
TTITLE12=Fred McDowell - Wouldn't Mind Dyin'
TTITLE13=Johnny Littlejohn - Dust My Broom
TTITLE14=Blind Connie Williams - Trouble In Mind
TTITLE15=Big Joe Williams - How Do You Want Your Rollin' Done?
TTITLE16=Mott Willis - M and O Blues
TTITLE17=Johnny Shines - Crucial Moment
TTITLE18=Jack Owens - Train Time
TTITLE19=Robert Johnson - I Don't Know When Death Is Gonna Call Me
TTITLE20=Herb Quinn - Casey, You Can't Ride This Train
TTITLE21=Napoleon Strickland - Shake 'Em Down
EXTD=
EXTT0=
EXTT1=
EXTT2=
EXTT3=
EXTT4=
EXTT5=
EXTT6=
EXTT7=
EXTT8=
EXTT9=
EXTT10=
EXTT11=
EXTT12=
EXTT13=
EXTT14=
EXTT15=
EXTT16=
EXTT17=
EXTT18=
EXTT19=
EXTT20=
EXTT21=
PLAYORDER=
